# xmcd
#
# Track frame offsets: 
#        150
#        14534
#        34937
#        47757
#        62601
#        75767
#        94818
#        106757
#        135784
#        150440
#        183040
#        205609
#
# Disc length: 2874 seconds
#
# Revision: 0
# Processed by: cddbd v1.5.2PL0 Copyright (c) Steve Scherf et al.
# Submitted via: ExactAudioCopy v0.99pb3
#
DISCID=7e0b380c
DTITLE=Matt Walsh - Hard Luck
DYEAR=2007
DGENRE=Blues
TTITLE0=Leaving My Baby
TTITLE1=Why My Baby Ain't Around
TTITLE2=One Look
TTITLE3=Breakin' Up Over You
TTITLE4=Hard To Find
TTITLE5=Hard Luck
TTITLE6=Goin' Out
TTITLE7=Pointless Blues
TTITLE8=20 More Miles
TTITLE9=Sit And Wonder
TTITLE10=The Way You Drag Me Down
TTITLE11=Woody's Rag
EXTD=
EXTT0=
EXTT1=
EXTT2=
EXTT3=
EXTT4=
EXTT5=
EXTT6=
EXTT7=
EXTT8=
EXTT9=
EXTT10=
EXTT11=
PLAYORDER=
